<?xml version="1.0" encoding="UTF-8"?>
<svg xmlns="http://www.w3.org/2000/svg" xmlns:xlink="http://www.w3.org/1999/xlink" width="2100" height="2100" viewBox="0 0 2100 2100">

<path fill-rule="nonzero" fill="rgb(0%, 0%, 0%)" fill-opacity="1" d="M 1029.75 1718.089844 C 1013.691406 1708.300781 1013.179688 1705.28125 1013.179688 1620.804688 C 1013.179688 1578.785156 1012.269531 1544.40625 1011.148438 1544.40625 C 1010.03125 1544.40625 999.085938 1554.550781 986.824219 1566.949219 C 974.558594 1579.351562 961.332031 1591.183594 957.425781 1593.25 C 939.957031 1602.488281 917.351562 1593.367188 911.085938 1574.554688 C 904.824219 1555.753906 908.257812 1550.558594 963.144531 1495.777344 L 1013.179688 1445.835938 L 1013.179688 1312.25 L 1000.261719 1324.339844 C 993.148438 1330.988281 984.265625 1337.195312 980.515625 1338.136719 C 960.660156 1343.121094 939.542969 1327.324219 939.542969 1307.488281 C 939.542969 1301.679688 941.234375 1293.734375 943.304688 1289.828125 C 945.375 1285.921875 961.941406 1267.949219 980.125 1249.890625 L 1013.179688 1217.054688 L 1013.179688 1178.226562 C 1013.179688 1156.867188 1012.148438 1139.394531 1010.890625 1139.394531 C 1009.628906 1139.394531 978.261719 1170.195312 941.191406 1207.839844 L 873.792969 1276.285156 L 873.789062 1378.128906 C 873.78125 1473.132812 873.445312 1480.515625 868.839844 1488.074219 C 863.632812 1496.609375 849.246094 1504.957031 839.738281 1504.957031 C 831.265625 1504.957031 819.664062 1498.105469 813.515625 1489.46875 C 808.3125 1482.160156 808.050781 1478.449219 808.050781 1412.558594 L 808.050781 1343.324219 L 784.324219 1366.9375 L 760.59375 1390.554688 L 760.796875 1461.78125 C 760.941406 1512.808594 760.082031 1535.015625 757.773438 1540.085938 C 750.371094 1556.328125 723.625 1562.996094 709.726562 1552.0625 C 696.785156 1541.882812 694.960938 1534.707031 694.960938 1493.945312 L 694.960938 1456.371094 L 657.484375 1493.53125 C 636.871094 1513.96875 617.421875 1532 614.261719 1533.601562 C 611.105469 1535.207031 603.691406 1536.515625 597.789062 1536.515625 C 589.234375 1536.515625 585.0625 1534.6875 577.234375 1527.511719 C 568.144531 1519.183594 567.410156 1517.417969 567.410156 1503.878906 L 567.410156 1489.246094 L 604.886719 1451.703125 C 625.496094 1431.050781 642.363281 1413.285156 642.363281 1412.21875 C 642.363281 1411.152344 627.511719 1410.277344 609.359375 1410.277344 C 573.503906 1410.277344 565.738281 1408.136719 555.804688 1395.511719 C 549.101562 1386.988281 548.546875 1370.6875 554.617188 1360.414062 C 563.644531 1345.128906 566.957031 1344.53125 642.449219 1344.53125 L 711.417969 1344.53125 L 734.75 1321.699219 C 747.582031 1309.144531 758.082031 1298.046875 758.082031 1297.046875 C 758.082031 1296.042969 726.9375 1294.71875 688.875 1294.105469 C 621.960938 1293.023438 619.390625 1292.785156 611.253906 1286.992188 C 595.207031 1275.566406 590.832031 1258.078125 600.175781 1242.746094 C 610.796875 1225.328125 610.671875 1225.34375 725.027344 1227.386719 L 827.773438 1229.21875 L 898.765625 1158.007812 L 969.753906 1086.800781 L 879.820312 1086.800781 L 845.679688 1122.058594 C 819.804688 1148.777344 809.203125 1157.964844 801.902344 1159.980469 C 776.785156 1166.914062 754.105469 1144.808594 760.9375 1120.054688 C 762.292969 1115.148438 768.222656 1105.65625 774.113281 1098.960938 L 784.828125 1086.800781 L 650.753906 1086.800781 L 602.949219 1136.582031 C 555.609375 1185.886719 547.777344 1191.992188 531.898438 1191.992188 C 520.921875 1191.992188 507.402344 1181.429688 503.59375 1169.882812 C 498.183594 1153.46875 502.425781 1144.753906 530.6875 1114.238281 L 556.097656 1086.800781 L 482.113281 1086.800781 C 402.546875 1086.800781 397.132812 1086.019531 385.066406 1072.929688 C 371.652344 1058.371094 376.855469 1033.121094 395.308594 1023.21875 C 403.378906 1018.890625 411.628906 1018.421875 478.441406 1018.421875 L 552.617188 1018.421875 L 528.171875 994.089844 C 502.800781 968.839844 498.390625 960.589844 502.011719 945.179688 C 504.308594 935.398438 515.542969 924.140625 525.835938 921.308594 C 543.835938 916.339844 550.847656 920.960938 601.746094 971.371094 L 649.234375 1018.421875 L 779.730469 1018.421875 L 770.21875 1007.890625 C 747.214844 982.429688 764.773438 946.359375 798.003906 950.820312 C 807.722656 952.121094 812.492188 955.859375 842.042969 985.351562 L 875.183594 1018.421875 L 967.125 1018.421875 L 894.832031 946.089844 L 822.546875 873.769531 L 721.007812 873.769531 C 619.640625 873.769531 619.453125 873.761719 610.53125 867.769531 C 599.96875 860.671875 593.234375 844.429688 596.105469 832.980469 C 597.152344 828.808594 602.152344 821.488281 607.222656 816.710938 L 616.433594 808.019531 L 756.652344 808.019531 L 733.089844 784.351562 L 709.53125 760.679688 L 637.558594 760.679688 C 568.890625 760.679688 565.234375 760.429688 557.910156 755.210938 C 549.273438 749.070312 542.421875 737.460938 542.421875 728.988281 C 542.421875 719.371094 550.464844 705.78125 559.449219 700.230469 C 567.007812 695.558594 572.515625 694.929688 605.816406 694.929688 L 643.605469 694.929688 L 606.445312 657.460938 C 586.007812 636.839844 567.976562 617.390625 566.371094 614.230469 C 564.769531 611.070312 563.460938 603.660156 563.460938 597.761719 C 563.460938 589.210938 565.289062 585.03125 572.460938 577.199219 C 580.792969 568.109375 582.558594 567.378906 596.097656 567.378906 L 610.730469 567.378906 L 648.273438 604.859375 C 668.921875 625.46875 686.691406 642.328125 687.757812 642.328125 C 688.824219 642.328125 689.695312 626.839844 689.695312 607.890625 C 689.695312 569.160156 692.238281 561.308594 707.074219 554.269531 C 723.527344 546.460938 740.953125 551.53125 750.292969 566.851562 C 755.035156 574.628906 755.425781 580.46875 755.4375 643.699219 L 755.441406 712.140625 L 778.503906 735.089844 C 791.191406 747.71875 802.320312 758.050781 803.234375 758.050781 C 804.148438 758.050781 805.308594 726.929688 805.8125 688.890625 C 806.621094 627.628906 807.265625 618.910156 811.472656 612.5 C 817.304688 603.609375 830.914062 595.019531 839.203125 595 C 849.355469 594.980469 862.832031 602.871094 868.59375 612.191406 C 873.894531 620.769531 873.96875 623.070312 872.304688 724.351562 L 870.605469 827.75 L 941.890625 898.730469 L 1013.179688 969.730469 L 1013.179688 882.210938 L 980.105469 851.179688 C 944.699219 817.960938 939.539062 810.960938 939.539062 796.191406 C 939.539062 776.421875 952.890625 763.308594 973.011719 763.308594 C 983.703125 763.308594 990.828125 767.070312 1004.628906 780 L 1013.179688 788.011719 L 1013.179688 654.03125 L 964.15625 606.871094 C 934.023438 577.871094 913.679688 556.199219 911.347656 550.621094 C 901.074219 526.039062 923.457031 500 949.832031 505.859375 C 956.296875 507.289062 965.875 514.890625 984.066406 533.011719 C 997.960938 546.851562 1010.191406 558.179688 1011.25 558.179688 C 1012.308594 558.179688 1013.179688 522.96875 1013.191406 479.929688 C 1013.191406 406.96875 1013.539062 401.121094 1018.328125 393.269531 C 1031.199219 372.160156 1058.808594 371.621094 1073.460938 392.199219 C 1078.699219 399.558594 1078.929688 403.109375 1078.929688 477.710938 C 1078.929688 520.519531 1079.789062 555.550781 1080.851562 555.550781 C 1081.910156 555.550781 1093.550781 544.808594 1106.71875 531.691406 C 1133.480469 505.039062 1141.890625 501.121094 1159.359375 507.121094 C 1176.609375 513.058594 1184.980469 530.441406 1179.128906 548.160156 C 1177.210938 553.960938 1159.878906 573.25 1127.589844 605.511719 L 1078.929688 654.121094 L 1078.929688 784.761719 L 1090.03125 775.25 C 1102.96875 764.179688 1109.359375 762.109375 1124.449219 764.140625 C 1149.019531 767.429688 1158.488281 795.699219 1142.320312 817.488281 C 1138.140625 823.128906 1122.160156 840.148438 1106.820312 855.308594 L 1078.929688 882.878906 L 1078.929688 974.988281 L 1223.570312 830.410156 L 1223.570312 727.058594 C 1223.570312 629.78125 1223.878906 623.121094 1228.699219 613.660156 C 1233.960938 603.351562 1246.910156 595 1257.628906 595 C 1266.378906 595 1277.769531 601.941406 1284.511719 611.390625 C 1290.5 619.789062 1290.660156 621.519531 1291.449219 690.328125 C 1291.898438 729.019531 1293.058594 760.679688 1294.03125 760.679688 C 1295 760.679688 1306.171875 750.351562 1318.859375 737.71875 L 1341.921875 714.769531 L 1341.921875 646.730469 C 1341.921875 570.578125 1342.890625 565.511719 1359.46875 555.269531 C 1376.46875 544.761719 1398.070312 552.96875 1406.691406 573.210938 C 1409.089844 578.839844 1410.300781 592.480469 1410.300781 613.941406 L 1410.300781 646.210938 L 1489.261719 567.378906 L 1503.898438 567.378906 C 1517.441406 567.378906 1519.199219 568.109375 1527.539062 577.199219 C 1534.710938 585.03125 1536.539062 589.210938 1536.539062 597.761719 C 1536.539062 603.660156 1535.230469 611.070312 1533.628906 614.230469 C 1532.019531 617.390625 1514.171875 636.660156 1493.960938 657.050781 L 1457.210938 694.109375 L 1481.5 695.839844 C 1494.859375 696.78125 1510.988281 697.558594 1517.351562 697.558594 C 1531.921875 697.558594 1543.210938 703.320312 1549.789062 714.128906 C 1559.429688 729.941406 1553.890625 750.769531 1537.308594 761.019531 C 1528.28125 766.601562 1526.859375 766.671875 1458.03125 764.871094 L 1387.941406 763.039062 L 1365.648438 785.53125 L 1343.351562 808.019531 L 1411.980469 808.019531 C 1477.578125 808.019531 1480.910156 808.261719 1487.578125 813.511719 C 1502.511719 825.261719 1506.421875 844.199219 1497.050781 859.371094 C 1486.679688 876.140625 1484.828125 876.398438 1374.378906 876.398438 L 1274.820312 876.398438 L 1203.851562 947.410156 L 1132.878906 1018.421875 L 1222.339844 1018.421875 L 1252.550781 987.988281 C 1269.160156 971.25 1285.941406 955.871094 1289.851562 953.800781 C 1313.449219 941.300781 1342.929688 962.679688 1338.039062 988.75 C 1337.121094 993.671875 1332.148438 1002.359375 1327 1008.058594 L 1317.640625 1018.421875 L 1447.761719 1018.421875 L 1497.230469 970.941406 C 1530.410156 939.089844 1549.511719 922.671875 1555.269531 921.019531 C 1573.269531 915.859375 1591.761719 926.769531 1595.738281 944.898438 C 1599.128906 960.351562 1594.71875 968.75 1569.910156 994.089844 L 1546.089844 1018.421875 L 1620.910156 1018.421875 C 1688.351562 1018.421875 1696.621094 1018.890625 1704.691406 1023.21875 C 1723.140625 1033.121094 1728.351562 1058.371094 1714.929688 1072.929688 C 1702.839844 1086.058594 1697.570312 1086.800781 1616.429688 1086.800781 L 1540.980469 1086.800781 L 1567.5 1114.054688 C 1596.238281 1143.589844 1600.289062 1151.804688 1594.578125 1169.082031 C 1588.96875 1186.070312 1574.429688 1194.257812 1555.980469 1190.800781 C 1548.109375 1189.324219 1538.191406 1180.507812 1496.460938 1137.910156 L 1446.378906 1086.800781 L 1311.898438 1086.800781 L 1323 1098.109375 C 1335.269531 1110.609375 1340.121094 1123.109375 1337.699219 1136.007812 C 1334.5 1153.074219 1314.070312 1165.121094 1296.558594 1160.273438 C 1290.738281 1158.660156 1276.660156 1146.53125 1252.539062 1122.351562 L 1217.070312 1086.800781 L 1130.25 1086.800781 L 1199.910156 1156.488281 L 1269.558594 1226.183594 L 1373.730469 1226.183594 C 1477.808594 1226.183594 1477.910156 1226.183594 1486.800781 1232.179688 C 1502.519531 1242.773438 1506.71875 1259.75 1497.390625 1275.046875 C 1487.828125 1290.726562 1481.359375 1291.929688 1406.621094 1291.929688 C 1369.589844 1291.929688 1339.289062 1292.792969 1339.289062 1293.851562 C 1339.289062 1294.90625 1349.628906 1306.152344 1362.25 1318.835938 L 1385.210938 1341.898438 L 1453.640625 1341.90625 C 1516.828125 1341.910156 1522.71875 1342.308594 1530.480469 1347.039062 C 1541.980469 1354.054688 1547.78125 1363.78125 1547.78125 1376.085938 C 1547.78125 1388.390625 1541.980469 1398.113281 1530.480469 1405.128906 C 1523.289062 1409.511719 1517.128906 1410.257812 1487.921875 1410.265625 L 1453.761719 1410.269531 L 1493.179688 1449.753906 L 1532.589844 1489.234375 L 1532.589844 1503.867188 C 1532.589844 1517.410156 1531.859375 1519.175781 1522.769531 1527.503906 C 1514.941406 1534.679688 1510.769531 1536.507812 1502.210938 1536.507812 C 1496.308594 1536.507812 1488.898438 1535.195312 1485.738281 1533.59375 C 1482.578125 1531.992188 1463.308594 1514.140625 1442.921875 1493.921875 L 1405.839844 1457.164062 L 1404.140625 1475.136719 C 1403.210938 1485.023438 1402.441406 1501.160156 1402.429688 1510.996094 C 1402.410156 1530.515625 1398.378906 1541.265625 1388.699219 1547.605469 C 1372.761719 1558.054688 1352.988281 1554.679688 1342.308594 1539.6875 C 1336.859375 1532.03125 1336.660156 1529.195312 1336.660156 1459.773438 L 1336.660156 1387.796875 L 1314.910156 1366.160156 C 1302.941406 1354.257812 1292.589844 1344.519531 1291.898438 1344.519531 C 1291.210938 1344.519531 1290.640625 1374.992188 1290.640625 1412.242188 C 1290.640625 1478.9375 1290.550781 1480.09375 1284.519531 1488.550781 C 1273.121094 1504.527344 1258.019531 1508.65625 1242.148438 1500.140625 C 1223.699219 1490.25 1223.570312 1489.394531 1223.570312 1376.101562 L 1223.570312 1274.792969 L 1153.210938 1204.460938 C 1114.5 1165.777344 1081.960938 1134.128906 1080.878906 1134.128906 C 1079.808594 1134.128906 1078.929688 1153.378906 1078.929688 1176.90625 L 1078.929688 1219.683594 L 1110.671875 1251.203125 C 1128.128906 1268.535156 1144.109375 1285.914062 1146.179688 1289.820312 C 1154.871094 1306.230469 1148.148438 1329.089844 1132.75 1335.527344 C 1116.328125 1342.386719 1102.769531 1339.089844 1089.648438 1325.050781 C 1086.140625 1321.296875 1082.289062 1318.222656 1081.101562 1318.222656 C 1079.910156 1318.222656 1078.929688 1347.445312 1078.929688 1383.15625 L 1078.929688 1448.089844 L 1127.429688 1496.902344 C 1154.109375 1523.75 1177.25 1549.210938 1178.859375 1553.488281 C 1186.421875 1573.625 1170.769531 1597 1149.710938 1597 C 1135.019531 1597 1128.03125 1592.605469 1103.980469 1568.261719 C 1092.441406 1556.582031 1082.078125 1547.03125 1080.960938 1547.03125 C 1079.839844 1547.03125 1078.929688 1581.464844 1078.929688 1623.550781 C 1078.929688 1696.820312 1078.691406 1700.394531 1073.460938 1707.746094 C 1062.558594 1723.054688 1044.789062 1727.257812 1029.75 1718.082031 Z M 1029.75 1718.089844 "/>
</svg>
